<svg viewBox="0.0004 0 216.4139 232.0098" width="6mm" height="6mm" xmlns="http://www.w3.org/2000/svg">
    <title>Mastodon</title>
    <path d="M 211.807 139.088 C 208.626 155.454 183.315 173.365 154.245 176.836 C 139.086 178.645 124.161 180.308 108.246 179.578 C 82.219 178.385 61.681 173.365 61.681 173.365 C 61.681 175.899 61.837 178.311 62.15 180.568 C 65.534 206.254 87.62 207.793 108.541 208.51 C 129.657 209.233 148.46 203.304 148.46 203.304 L 149.327 222.394 C 149.327 222.394 134.557 230.325 108.246 231.784 C 93.737 232.581 75.722 231.419 54.74 225.865 C 9.232 213.82 1.406 165.311 0.209 116.091 C -0.156 101.478 0.069 87.698 0.069 76.173 C 0.069 25.843 33.045 11.09 33.045 11.09 C 49.672 3.454 78.204 0.243 107.865 0 L 108.594 0 C 138.255 0.243 166.805 3.454 183.431 11.09 C 183.431 11.09 216.406 25.843 216.406 76.173 C 216.406 76.173 216.82 113.306 211.807 139.088" style="fill: rgb(239, 98, 108);"/>
    <path d="M177.50984 80.077v60.94125h-24.14375v-59.15c0-12.46875-5.24625-18.7975-15.74-18.7975-11.6025 0-17.4175 7.5075-17.4175 22.3525v32.37625H96.20734V85.42325c0-14.845-5.81625-22.3525-17.41875-22.3525-10.49375 0-15.74 6.32875-15.74 18.7975v59.15H38.90484V80.077c0-12.455 3.17125-22.3525 9.54125-29.675 6.56875-7.3225 15.17125-11.07625 25.85-11.07625 12.355 0 21.71125 4.74875 27.8975 14.2475l6.01375 10.08125 6.015-10.08125c6.185-9.49875 15.54125-14.2475 27.8975-14.2475 10.6775 0 19.28 3.75375 25.85 11.07625 6.36875 7.3225 9.54 17.22 9.54 29.675" style="fill: rgb(249, 247, 247);"/>
</svg>