<svg viewBox="1.7698 0.0004 449.0495 452.5891" width="10mm" height="10mm" xmlns="http://www.w3.org/2000/svg"><title>paw</title><g><path d="M375.786,368.016c-1.022,62.699-34.434,85.385-69.898,83.283c-35.465-2.093-60.132-18.537-85.32-18.537l-1.032,0.576&#10;&#9;&#9;c-25.188,0-49.854,17.021-85.319,19.114c-35.466,2.093-68.876-19.449-69.898-82.148c2.056-57.565,45.911-61.798,83.265-129.8&#10;&#9;&#9;c32.891-59.881,71.954-55.035,71.954-55.035h1.03c0,0,39.4-4.586,71.955,55.035C329.698,308.599,373.73,310.449,375.786,368.016z&#10;&#9;&#9; M156.203,159.636c31.413-2.382,54.172-40.021,50.832-84.071c-3.34-44.049-31.514-77.828-62.927-75.446&#10;&#9;&#9;C112.695,2.501,89.936,40.141,93.276,84.19C96.616,128.239,124.789,162.018,156.203,159.636z M275.264,160.401&#10;&#9;&#9;c30.698,8.368,65.097-19.742,76.83-62.786c11.732-43.044-3.642-84.722-34.339-93.09c-30.698-8.368-65.097,19.742-76.829,62.786&#10;&#9;&#9;C229.193,110.354,244.566,152.033,275.264,160.401z M417.486,125.937c-26.732-7.288-56.688,17.19-66.905,54.674&#10;&#9;&#9;c-10.217,37.484,3.171,73.777,29.903,81.064c26.733,7.287,56.688-17.191,66.906-54.675&#10;&#9;&#9;C457.608,169.518,444.22,133.224,417.486,125.937z M102.008,180.608c-10.218-37.482-40.172-61.961-66.905-54.674&#10;&#9;&#9;s-40.122,43.581-29.904,81.064c10.218,37.482,40.173,61.961,66.906,54.674C98.837,254.386,112.225,218.092,102.008,180.608z" style="fill: rgb(239, 98, 108);"/></g></svg>